<svg width="21" height="17" viewBox="0 0 21 17" fill="none" xmlns="http://www.w3.org/2000/svg">
<path d="M13.7227 16V14.3333C13.7227 13.4493 13.3715 12.6014 12.7463 11.9763C12.1212 11.3512 11.2734 11 10.3893 11H4.55599C3.67193 11 2.82409 11.3512 2.19897 11.9763C1.57385 12.6014 1.22266 13.4493 1.22266 14.3333V16" stroke="#3F3F3F" stroke-linecap="round" stroke-linejoin="round"/>
<path d="M7.47298 7.66667C9.31393 7.66667 10.8063 6.17428 10.8063 4.33333C10.8063 2.49238 9.31393 1 7.47298 1C5.63203 1 4.13965 2.49238 4.13965 4.33333C4.13965 6.17428 5.63203 7.66667 7.47298 7.66667Z" stroke="#3F3F3F" stroke-linecap="round" stroke-linejoin="round"/>
<path d="M17.0557 5.1665V10.1665" stroke="#3F3F3F" stroke-linecap="round" stroke-linejoin="round"/>
<path d="M19.5557 7.66699H14.5557" stroke="#3F3F3F" stroke-linecap="round" stroke-linejoin="round"/>
</svg>
