<svg width="18" height="18" viewBox="0 0 18 18" fill="none" xmlns="http://www.w3.org/2000/svg">
<path d="M16.0797 8.28774L9.18723 15.1802C8.34285 16.0246 7.19762 16.499 6.00348 16.499C4.80934 16.499 3.66411 16.0246 2.81973 15.1802C1.97535 14.3359 1.50098 13.1906 1.50098 11.9965C1.50098 10.8024 1.97535 9.65712 2.81973 8.81274L9.24723 2.38524C9.81015 1.82132 10.574 1.50412 11.3708 1.50342C12.1676 1.50272 12.9321 1.81857 13.496 2.38149C14.0599 2.94441 14.3771 3.70829 14.3778 4.50509C14.3785 5.30188 14.0627 6.06632 13.4997 6.63024L7.05723 13.0577C6.77577 13.3392 6.39403 13.4973 5.99598 13.4973C5.59793 13.4973 5.21619 13.3392 4.93473 13.0577C4.65327 12.7763 4.49514 12.3945 4.49514 11.9965C4.49514 11.5984 4.65327 11.2167 4.93473 10.9352L11.3022 4.57524" stroke="#959595" stroke-linecap="round" stroke-linejoin="round"/>
</svg>
